<svg xmlns="http://www.w3.org/2000/svg" xml:space="preserve" width="544.85767" height="399.99985" viewBox="0 0 544.85765 399.99985"><defs><linearGradient id="b" x1="0" x2="1" y1="0" y2="0" gradientTransform="scale(-16.3844 16.22824)rotate(45 -12.783 -11.463)" gradientUnits="userSpaceOnUse" spreadMethod="pad"><stop offset="0" style="stop-opacity:1;stop-color:#00a2e8"/><stop offset="0.00561523" style="stop-opacity:1;stop-color:#00a2e8"/><stop offset="1" style="stop-opacity:1;stop-color:#004da0"/></linearGradient><linearGradient id="d" x1="0" x2="1" y1="0" y2="0" gradientTransform="scale(-25.65618 25.65618)rotate(-70 -1.135 7.665)" gradientUnits="userSpaceOnUse" spreadMethod="pad"><stop offset="0" style="stop-opacity:1;stop-color:#afce00"/><stop offset="0.134827" style="stop-opacity:1;stop-color:#afce00"/><stop offset="0.31954596" style="stop-opacity:1;stop-color:#afce00"/><stop offset="0.837082" style="stop-opacity:1;stop-color:#009344"/><stop offset="1" style="stop-opacity:1;stop-color:#009344"/></linearGradient><clipPath id="a" clipPathUnits="userSpaceOnUse"><path d="M182.075 102.4c-1.986-1.952-2.452-5.287-1.051-8.263.15-.334.311-.279.232.067-.464 2.055-.205 4.087 1.21 5.519 2.672 2.701 9.046.45 14.257-4.549.085-.068.139-.032.145.046.053 1.003.233 4.963.233 4.963.011.179-.016.273-.149.37-3.514 2.606-6.909 3.653-9.67 3.653-2.247 0-4.075-.693-5.207-1.806"/></clipPath><clipPath id="c" clipPathUnits="userSpaceOnUse"><path d="m195.268 104.504-.253-5.227c-.008-.141.03-.196.123-.264 1.027-.791 2.021-1.638 2.988-2.652 4.148-4.351 7.679-11.562 4.374-14.868-2.562-2.561-8.235-1.856-13.693 1.992-.301.212-.404.057-.188-.163 5.709-5.229 12.057-6.36 15.669-3.693 4.459 3.293 3.335 11.958-2.269 18.931-1.26 1.567-3.721 4.144-6.532 6.044q-.072.05-.121.05c-.063 0-.098-.058-.098-.15"/></clipPath></defs><path d="M322.788 170.09c-9.13 0-17.988 4.844-17.988 18.714l-.015 124.875 27.149.015c8.616-.015 12.022-3.816 12.022-11.523v-39.99h62.218c8.631 0 12.023-3.815 12.023-11.568v-20.32h-74.24v-28.724h68.123c8.6 0 12.022-3.816 12.022-11.538l-.015-19.942zM134.217 294.965l-.015-124.875h-26.846c-8.631 0-12.023 3.816-12.023 11.538v68.26L35.432 170.09H17.958C8.843 170.09.015 174.936 0 188.806V313.68h26.877c8.6 0 12.022-3.8 12.022-11.507v-68.35l61.25 79.857h16.095c9.13 0 17.973-4.83 17.973-18.715" style="fill:#004b9c;fill-opacity:1;fill-rule:nonzero;stroke:none;stroke-width:15.1418"/><g clip-path="url(#a)" transform="matrix(15.14183 0 0 -15.14183 -2590.012 1584.653)"><path d="M182.075 102.4c-1.986-1.952-2.452-5.287-1.051-8.263.15-.334.311-.279.232.067-.464 2.055-.205 4.087 1.21 5.519 2.672 2.701 9.046.45 14.257-4.549.085-.068.139-.032.145.046.053 1.003.233 4.963.233 4.963.011.179-.016.273-.149.37-3.514 2.606-6.909 3.653-9.67 3.653-2.247 0-4.075-.693-5.207-1.806" style="fill:url(#b);stroke:none"/></g><g clip-path="url(#c)" transform="matrix(15.14183 0 0 -15.14183 -2590.012 1584.653)"><path d="m195.268 104.504-.253-5.227c-.008-.141.03-.196.123-.264 1.027-.791 2.021-1.638 2.988-2.652 4.148-4.351 7.679-11.562 4.374-14.868-2.562-2.561-8.235-1.856-13.693 1.992-.301.212-.404.057-.188-.163 5.709-5.229 12.057-6.36 15.669-3.693 4.459 3.293 3.335 11.958-2.269 18.931-1.26 1.567-3.721 4.144-6.532 6.044q-.072.05-.121.05c-.063 0-.098-.058-.098-.15" style="fill:url(#d);stroke:none"/></g><path d="M225.962 234.042h-30.92l.016-34.705c6.738.03 27.467.03 31.752.03 10.75 0 19.048 6.996 19.048 17.292 0 11.66-9.372 17.383-19.896 17.383m45.547 79.646h34.599c-25.605-26.332-39.566-41.625-49.544-54.268 20.895-10.1 30.102-26.922 30.102-42.882 0-26.392-16.505-44.956-47.273-46.38-1.484-.075-57.19.016-83.22 0v143.53h26.862c8.616.015 12.023-3.8 12.008-11.538l.015-60.25c17.7 24.137 34.114 44.972 52.45 62.779 5.77 5.784 16.657 9.01 24 9.01" style="fill:#004b9c;fill-opacity:1;fill-rule:nonzero;stroke:none;stroke-width:15.1418"/></svg>